<?xml version="1.0" standalone="no"?>
<!DOCTYPE svg PUBLIC "-//W3C//DTD SVG 20010904//EN"
 "http://www.w3.org/TR/2001/REC-SVG-20010904/DTD/svg10.dtd">
<svg version="1.0" xmlns="http://www.w3.org/2000/svg"
 width="512.000000pt" height="512.000000pt" viewBox="0 0 512.000000 512.000000"
 preserveAspectRatio="xMidYMid meet">

<g transform="translate(0.000000,512.000000) scale(0.100000,-0.100000)"
fill="#000000" stroke="none">
<path d="M2777 4849 c-126 -84 -217 -251 -217 -402 l0 -42 -136 138 c-75 75
-147 140 -159 143 -35 9 -82 -21 -90 -56 -5 -24 3 -49 39 -123 51 -102 82
-212 72 -251 -6 -24 -10 -26 -64 -26 -96 0 -246 59 -367 145 -87 62 -197 182
-251 275 -26 45 -57 88 -68 96 -42 29 -146 7 -200 -44 -46 -44 -66 -97 -66
-182 0 -90 13 -149 79 -352 27 -85 53 -178 57 -208 l7 -53 -40 6 c-23 4 -102
30 -178 57 -162 60 -241 80 -315 79 -171 0 -252 -110 -155 -209 19 -20 89 -69
155 -109 66 -40 122 -76 125 -81 3 -5 -17 -19 -45 -31 -67 -29 -140 -109 -169
-186 -48 -130 -45 -335 9 -551 35 -136 56 -183 92 -200 53 -25 74 -4 186 178
l21 34 21 -48 c11 -27 29 -76 40 -109 19 -57 19 -64 5 -114 -28 -96 -125 -224
-307 -406 -135 -135 -168 -173 -168 -195 1 -34 19 -58 54 -72 32 -12 35 -11
166 69 168 103 329 169 432 178 53 5 59 4 87 -24 35 -35 46 -91 39 -193 -6
-84 -52 -188 -120 -271 -25 -31 -49 -65 -52 -77 -8 -25 16 -77 39 -86 44 -17
70 -6 322 136 l52 29 17 -32 c60 -117 55 -406 -13 -694 -39 -167 -39 -166 -7
-199 22 -22 34 -26 57 -22 31 6 165 91 314 199 51 37 95 67 98 67 43 0 -133
-407 -260 -601 -69 -107 -73 -154 -14 -185 27 -13 36 -13 97 2 217 54 485 223
732 461 225 216 371 402 450 568 58 121 70 170 70 272 -1 154 -52 248 -261
473 -148 161 -228 264 -294 383 -62 109 -94 188 -107 267 -13 79 -3 111 44
141 58 36 162 15 553 -111 368 -118 455 -136 514 -106 19 10 38 31 47 52 13
31 13 39 -4 77 -20 43 -121 146 -224 227 -32 24 -56 45 -54 47 1 1 43 -2 92
-8 97 -12 243 -5 277 13 49 26 61 78 28 119 -19 23 -24 24 -178 25 -101 0
-178 5 -213 14 l-55 14 178 8 c189 7 253 17 323 48 118 52 110 210 -16 323
-55 49 -171 113 -270 147 -36 13 -88 41 -117 62 -61 46 -156 164 -232 286
-105 172 -268 530 -336 741 -10 29 -26 62 -36 72 -28 28 -78 24 -132 -12z
m275 -1090 c91 -28 100 -33 115 -64 20 -41 9 -74 -32 -101 -25 -16 -30 -16
-128 12 -117 33 -147 55 -147 108 0 25 7 40 26 55 35 27 49 27 166 -10z"/>
<path d="M4237 3364 c-88 -85 -183 -144 -235 -144 -35 0 -58 -16 -72 -49 -15
-38 3 -80 43 -99 60 -29 195 23 318 124 135 110 176 190 120 235 -47 38 -78
26 -174 -67z"/>
<path d="M4294 3028 c-12 -7 -43 -28 -69 -47 -102 -72 -217 -95 -339 -66 -71
17 -77 17 -101 1 -58 -38 -50 -106 15 -138 150 -73 428 -17 568 115 55 52 40
125 -28 141 -14 4 -35 1 -46 -6z"/>
</g>
</svg>
